STARTFONT 2.1
FONT -FontForge-Icleargothic-Bold-R-Normal--32-230-100-100-P-168-ISO10646-1
SIZE 23 100 100
FONTBOUNDINGBOX 39 38 -3 -8
COMMENT "Generated by fontforge, http://fontforge.sourceforge.net"
COMMENT "1991 B & P Graphics, Ltd.       "
STARTPROPERTIES 40
FOUNDRY "FontForge"
FAMILY_NAME "Icleargothic"
WEIGHT_NAME "Bold"
SLANT "R"
SETWIDTH_NAME "Normal"
ADD_STYLE_NAME ""
PIXEL_SIZE 32
POINT_SIZE 230
RESOLUTION_X 100
RESOLUTION_Y 100
SPACING "P"
AVERAGE_WIDTH 168
CHARSET_REGISTRY "ISO10646"
CHARSET_ENCODING "1"
FONTNAME_REGISTRY ""
CHARSET_COLLECTIONS "ISO10646-1"
FONT_NAME "Icleargothic-ExtraBold"
FACE_NAME "Icleargothic ExtraBold"
COPYRIGHT "1991 B & P Graphics, Ltd.       "
FONT_VERSION "001.000"
FONT_ASCENT 26
FONT_DESCENT 6
UNDERLINE_POSITION -3
UNDERLINE_THICKNESS 4
X_HEIGHT 15
CAP_HEIGHT 22
RAW_ASCENT 800
RAW_DESCENT 200
ITALIC_ANGLE 6336
NORM_SPACE 9
RELATIVE_WEIGHT 70
RELATIVE_SETWIDTH 50
SUPERSCRIPT_X 0
SUPERSCRIPT_Y 16
SUPERSCRIPT_SIZE 20
SUBSCRIPT_X 0
SUBSCRIPT_Y 4
SUBSCRIPT_SIZE 20
AVG_LOWERCASE_WIDTH 167
AVG_UPPERCASE_WIDTH 195
ENDPROPERTIES
CHARS 202
STARTCHAR space
ENCODING 32
SWIDTH 290 0
DWIDTH 9 0
BBX 1 1 0 0
BITMAP
00
ENDCHAR
STARTCHAR exclam
ENCODING 33
SWIDTH 302 0
DWIDTH 10 0
BBX 12 23 1 0
BITMAP
1FF0
1FE0
1FE0
1FE0
1FE0
1FC0
1FC0
1FC0
1FC0
1F80
1F80
1F80
1F00
1F00
1F00
3F00
0000
3F00
7F80
FF80
FF00
FF00
7E00
ENDCHAR
STARTCHAR quotedbl
ENCODING 34
SWIDTH 426 0
DWIDTH 14 0
BBX 12 8 3 15
BITMAP
79F0
79F0
79F0
79F0
79F0
F9F0
F9E0
F9E0
ENDCHAR
STARTCHAR numbersign
ENCODING 35
SWIDTH 560 0
DWIDTH 18 0
BBX 17 23 2 0
BITMAP
018C00
018C00
018C00
039C00
039C00
031800
3FFF80
3FFF80
3FFF00
063800
063000
063000
063000
0E7000
FFFE00
FFFE00
FFFE00
1C6000
1CE000
18C000
18C000
18C000
39C000
ENDCHAR
STARTCHAR dollar
ENCODING 36
SWIDTH 570 0
DWIDTH 18 0
BBX 18 27 1 -2
BITMAP
007E00
007E00
00FFC0
03FFC0
07FFC0
0FFFC0
1FC1C0
1FC0C0
3FC000
3FF000
3FFC00
3FFF00
1FFF80
1FFF80
0FFFC0
03FFC0
01FFC0
007FC0
403FC0
E03F80
F87F80
FFFF00
FFFE00
FFFC00
3FF000
07E000
07E000
ENDCHAR
STARTCHAR percent
ENCODING 37
SWIDTH 878 0
DWIDTH 28 0
BBX 27 25 2 -1
BITMAP
01C00000
0FF00E00
1FF81C00
3FF83C00
7EFC3800
7CFC7000
FCFCE000
FCFCE000
FCF9C000
7DFB8000
7FF38000
3FE70000
1F8E1F80
000E7FC0
001CFFE0
0039FBE0
0039F3E0
0073F3E0
00E3F3E0
00E3F3E0
01C3F7E0
0383FFC0
0381FF80
0700FF00
00003800
ENDCHAR
STARTCHAR ampersand
ENCODING 38
SWIDTH 743 0
DWIDTH 24 0
BBX 23 23 2 0
BITMAP
07FFF8
07FFF8
0FFFF8
0FFFF8
0FF018
07F000
07F800
07F800
03FC00
03FC18
0FFE1E
3FFE3E
7FFF7C
7FFFF8
FEFFF8
FE7FF0
FE7FE0
FE3FC0
FF3FE0
FFFFF0
FFFFF0
7FFFF8
3FEFF8
ENDCHAR
STARTCHAR quotesingle
ENCODING 39
SWIDTH 224 0
DWIDTH 7 0
BBX 5 8 3 15
BITMAP
78
78
78
78
78
F8
F8
F8
ENDCHAR
STARTCHAR parenleft
ENCODING 40
SWIDTH 294 0
DWIDTH 9 0
BBX 11 28 2 -4
BITMAP
01E0
03E0
07E0
0FC0
1FC0
1F80
3F00
3F00
3F00
7E00
7E00
7E00
FE00
FE00
FC00
FC00
FC00
FC00
FC00
FC00
FC00
FC00
FC00
FE00
7E00
7E00
3E00
0E00
ENDCHAR
STARTCHAR parenright
ENCODING 41
SWIDTH 294 0
DWIDTH 9 0
BBX 11 29 0 -4
BITMAP
0800
0F00
0F80
0FC0
1FC0
0FE0
07E0
07E0
07E0
07E0
07E0
0FE0
0FE0
0FE0
0FE0
0FC0
0FC0
0FC0
1FC0
1F80
1F80
1F80
3F00
3F00
FE00
FC00
F800
F000
C000
ENDCHAR
STARTCHAR asterisk
ENCODING 42
SWIDTH 435 0
DWIDTH 14 0
BBX 13 12 3 11
BITMAP
0380
0380
3338
7B78
3FF0
0780
1FC0
FAF8
7670
4620
0600
0E00
ENDCHAR
STARTCHAR plus
ENCODING 43
SWIDTH 606 0
DWIDTH 19 0
BBX 15 15 4 5
BITMAP
01E0
01E0
03E0
03C0
03C0
03C0
FFFE
FFFE
FFFE
FFFE
0780
0780
0780
0780
0780
ENDCHAR
STARTCHAR comma
ENCODING 44
SWIDTH 280 0
DWIDTH 9 0
BBX 9 9 0 -3
BITMAP
FE00
FE00
7E00
7E00
3E00
3F00
1F00
0F00
0F80
ENDCHAR
STARTCHAR hyphen
ENCODING 45
SWIDTH 325 0
DWIDTH 10 0
BBX 10 5 2 6
BITMAP
FF80
FF80
FF80
FF80
FFC0
ENDCHAR
STARTCHAR period
ENCODING 46
SWIDTH 295 0
DWIDTH 9 0
BBX 8 6 1 0
BITMAP
7E
FF
FF
FF
7F
3E
ENDCHAR
STARTCHAR slash
ENCODING 47
SWIDTH 387 0
DWIDTH 12 0
BBX 16 23 0 0
BITMAP
E000
7000
7000
3800
3800
1C00
0E00
0E00
0700
0700
0380
01C0
01C0
00E0
00E0
0070
0070
0038
001C
001C
000E
000E
0007
ENDCHAR
STARTCHAR zero
ENCODING 48
SWIDTH 606 0
DWIDTH 19 0
BBX 19 23 2 0
BITMAP
0FF000
1FFC00
3FFE00
7F7F00
7F7F00
7F3F80
FF3F80
FF3FC0
FF3FC0
FF1FC0
FF1FE0
7F1FE0
7F9FE0
7F9FE0
7F9FE0
3F8FE0
3F8FE0
1FCFE0
1FCFC0
0FFFC0
07FF80
03FF00
00FE00
ENDCHAR
STARTCHAR one
ENCODING 49
SWIDTH 606 0
DWIDTH 19 0
BBX 15 23 3 0
BITMAP
F800
FF00
FFE0
FFF0
7FF0
7F90
7F80
7F80
7F80
7F80
3F80
3FC0
3FC0
3FC0
3FC0
3FC0
1FC0
1FE0
1FE0
1FE0
FFFE
FFFE
FFFE
ENDCHAR
STARTCHAR two
ENCODING 50
SWIDTH 605 0
DWIDTH 19 0
BBX 19 24 1 0
BITMAP
010000
1FF800
3FFE00
7FFF00
FFFF00
FF0F00
FF0300
FF0100
7F8000
7F8000
3FC000
1FE000
0FE000
07F000
03F800
01FC00
007E00
003F00
001F80
2007E0
3FFFE0
3FFFE0
3FFFE0
1FFFE0
ENDCHAR
STARTCHAR three
ENCODING 51
SWIDTH 606 0
DWIDTH 19 0
BBX 19 24 1 0
BITMAP
008000
1FFC00
3FFE00
7FFF00
FFFF00
FF8300
FF0000
7F0000
7F8000
3FE000
1FF800
07FC00
0FFC00
1FFC00
3FE000
7FC000
7F8000
7FC000
3FC020
3FE0E0
1FFFE0
0FFFE0
07FFE0
01FFC0
ENDCHAR
STARTCHAR four
ENCODING 52
SWIDTH 606 0
DWIDTH 19 0
BBX 19 23 1 0
BITMAP
3F0000
9F8000
5FC000
6FC000
77E000
7BE000
79F000
7CF800
3EFC00
3F7C00
3FBE00
3FDF00
3FCF80
3FC7C0
7FFFC0
7FFFC0
7FFFE0
7FFFE0
7FFFE0
1FE000
1FE000
0FE000
0FF000
ENDCHAR
STARTCHAR five
ENCODING 53
SWIDTH 606 0
DWIDTH 19 0
BBX 19 23 2 0
BITMAP
FFFC00
FFFE00
FFFE00
FFFE00
FFFE00
001E00
001F00
001F00
07FF00
1FFF00
3FFF00
3FFF00
7FCE00
7F8000
7F8000
7F8000
7F8000
3FC040
3FE0C0
1FFBE0
0FFFE0
07FFE0
01FFC0
ENDCHAR
STARTCHAR six
ENCODING 54
SWIDTH 607 0
DWIDTH 19 0
BBX 18 23 3 0
BITMAP
FF0000
FFC000
FFF000
E7F800
81FC00
01FC00
00FE00
00FF00
1FFF00
3FFF00
7FFF80
FFFF80
FF7F80
FF7F80
FF3FC0
7F3FC0
7F3FC0
7F3FC0
3FBF80
3FFF80
1FFF00
0FFF00
03FC00
ENDCHAR
STARTCHAR seven
ENCODING 55
SWIDTH 605 0
DWIDTH 19 0
BBX 17 23 4 0
BITMAP
FFFF00
FFFF00
FFFF00
FFFF00
7FFF00
7C0000
3E0000
3E0000
1F0000
1F0000
0F8000
0F8000
07C000
07C000
03E000
03F000
03F000
01F800
01FC00
00FC00
00FE00
00FF00
007F80
ENDCHAR
STARTCHAR eight
ENCODING 56
SWIDTH 606 0
DWIDTH 19 0
BBX 18 23 2 0
BITMAP
3FE000
7FF000
FFF800
F8FC00
F87E00
F8FE00
F9FE00
7FFE00
1FFE00
1FFE00
3FFC00
7FFC00
7FFE00
FFFF80
FFCF80
FF07C0
FE07C0
7E07C0
7E07C0
3F1FC0
1FFFC0
0FFF80
03FE00
ENDCHAR
STARTCHAR nine
ENCODING 57
SWIDTH 606 0
DWIDTH 19 0
BBX 18 23 3 0
BITMAP
1FE000
3FF800
7FFC00
FFFE00
FE7F00
FE7F00
FE7F00
FE7F80
FF7F80
FF3F80
FF7F80
FFFF80
7FFF00
7FFF00
7FFC00
3F8000
3F8000
1FC000
0FE080
07F180
03FF80
01FF80
007FC0
ENDCHAR
STARTCHAR colon
ENCODING 58
SWIDTH 302 0
DWIDTH 10 0
BBX 10 16 1 0
BITMAP
7C00
FF00
FF00
FF80
7F80
3F00
0000
0000
0000
0000
3F80
3FC0
3FC0
3FC0
1FC0
0F80
ENDCHAR
STARTCHAR semicolon
ENCODING 59
SWIDTH 303 0
DWIDTH 10 0
BBX 11 20 0 -4
BITMAP
7C00
FE00
FF00
FF00
FF00
7F00
0000
0000
0000
0000
3F80
3F80
3F80
1F80
1F80
0FC0
07C0
07C0
03E0
01E0
ENDCHAR
STARTCHAR less
ENCODING 60
SWIDTH 522 0
DWIDTH 17 0
BBX 13 13 3 5
BITMAP
C000
F000
FC00
FF00
FF80
3FE0
0FF8
3FE0
FF80
FF00
FC00
F000
C000
ENDCHAR
STARTCHAR equal
ENCODING 61
SWIDTH 606 0
DWIDTH 19 0
BBX 15 10 4 7
BITMAP
FFFC
FFFC
FFFC
FFFC
0000
0000
7FFE
7FFE
7FFE
7FFE
ENDCHAR
STARTCHAR greater
ENCODING 62
SWIDTH 522 0
DWIDTH 17 0
BBX 14 15 3 4
BITMAP
0004
001C
007C
00FC
03FC
0FF8
3FE0
FF80
3FE0
0FF8
03FC
00FC
003C
001C
0004
ENDCHAR
STARTCHAR question
ENCODING 63
SWIDTH 501 0
DWIDTH 16 0
BBX 16 24 3 0
BITMAP
0780
3FF0
7FFC
7FFF
FFFE
FF1C
FF0C
FF08
FFC0
7FE0
3FE0
1FF0
0FF0
03F0
01F0
01F0
01F0
0000
01F8
03FC
03FE
03FE
01FC
00FC
ENDCHAR
STARTCHAR at
ENCODING 64
SWIDTH 834 0
DWIDTH 27 0
BBX 22 24 4 0
BITMAP
004000
07FC00
1FFF00
380780
7001E0
6060E0
C7F870
C30C38
C30638
C30618
C3071C
C3031C
C1831C
C1839C
61839C
61C31C
31C31C
1FB738
4F1E38
600070
3000F0
1C01E0
0FCFC0
03FF00
ENDCHAR
STARTCHAR A
ENCODING 65
SWIDTH 652 0
DWIDTH 21 0
BBX 22 23 -1 0
BITMAP
0FF000
0FF000
0FF000
0FF800
0FF800
1FFC00
1FFC00
1FFE00
1FFE00
1FFF00
1FEF00
3FEF80
3FE780
3FE7C0
3FFFC0
3FFFE0
3FFFE0
7FFFF0
7FFFF0
7FC0F8
7FC0F8
7FC0FC
FFC07C
ENDCHAR
STARTCHAR B
ENCODING 66
SWIDTH 650 0
DWIDTH 21 0
BBX 22 23 1 0
BITMAP
1FFFC0
7FFFC0
FFFFC0
FFFFC0
FF9FE0
FF1FE0
FF1FE0
7F1FE0
7F9FE0
3FFFE0
0FFFE0
1FFFF0
3FFFF0
7FCFF0
7F8FF0
7F8FF0
7F87F0
3FC7F8
3FE7F8
3FFFF8
1FFFF8
0FFFF8
01FFFC
ENDCHAR
STARTCHAR C
ENCODING 67
SWIDTH 602 0
DWIDTH 19 0
BBX 20 23 2 0
BITMAP
FFC000
FFF800
FFFC00
FFFE00
70FF00
607F80
403FC0
401FC0
001FE0
001FE0
001FE0
001FE0
000FF0
000FF0
000FF0
001FF0
001FF0
101FE0
3C3FE0
3FFFC0
3FFFC0
0FFF80
03FE00
ENDCHAR
STARTCHAR D
ENCODING 68
SWIDTH 642 0
DWIDTH 21 0
BBX 21 23 1 0
BITMAP
07FFC0
1FFFC0
3FFFC0
7FFFC0
7FBFC0
FF3FC0
FF3FC0
FF1FC0
FF1FE0
FF1FE0
FF1FE0
FF1FE0
7F1FE0
7F8FE0
7F8FF0
7F8FF0
3F8FF0
3FCFF0
1FEFF0
0FFFF0
07FFF8
01FFF8
007FF8
ENDCHAR
STARTCHAR E
ENCODING 69
SWIDTH 555 0
DWIDTH 18 0
BBX 19 23 1 0
BITMAP
FFFF00
FFFF00
FFFF00
FFFF00
00FF00
007F00
007F80
007F80
007F80
1FFF80
0FFF80
0FFF80
0FFFC0
003FC0
003FC0
003FC0
003FC0
001FC0
3FFFE0
3FFFE0
1FFFE0
1FFFE0
1FFFE0
ENDCHAR
STARTCHAR F
ENCODING 70
SWIDTH 494 0
DWIDTH 16 0
BBX 19 23 1 0
BITMAP
FFFE00
FFFE00
FFFF00
FFFF00
00FF00
00FF00
00FF00
007F00
007F00
0FFF80
0FFF80
0FFF80
0FFF80
007F80
003F80
003FC0
003FC0
003FC0
003FC0
003FC0
001FE0
001FE0
001FE0
ENDCHAR
STARTCHAR G
ENCODING 71
SWIDTH 664 0
DWIDTH 21 0
BBX 20 23 2 0
BITMAP
FFE000
FFF800
FFFC00
FFFF00
607F80
403F80
403FC0
001FE0
001FE0
000FF0
000FF0
FF0FF0
7F0FF0
7F0FF0
7F87F0
7F87F0
7F8FF0
7F8FF0
3F8FF0
3FFFE0
3FFFC0
3FFF80
0FFF00
ENDCHAR
STARTCHAR H
ENCODING 72
SWIDTH 664 0
DWIDTH 21 0
BBX 23 23 1 0
BITMAP
FF1FE0
FF1FE0
7F8FF0
7F8FF0
7F8FF0
7F8FF0
7F8FF0
7F8FF0
3FFFF0
3FFFF8
3FFFF8
3FFFF8
3FFFF8
3FC7F8
1FC3F8
1FE3FC
1FE3FC
1FE3FC
1FE3FC
1FE3FC
1FE1FC
0FF1FE
0FF1FE
ENDCHAR
STARTCHAR I
ENCODING 73
SWIDTH 318 0
DWIDTH 10 0
BBX 12 23 1 0
BITMAP
FF00
FF00
FF00
7F80
7F80
7F80
7F80
7F80
3F80
3F80
3FC0
3FC0
3FC0
3FC0
3FC0
1FC0
1FE0
1FE0
1FE0
1FE0
1FE0
1FF0
0FF0
ENDCHAR
STARTCHAR J
ENCODING 74
SWIDTH 372 0
DWIDTH 12 0
BBX 15 23 0 0
BITMAP
FF00
FF00
FF00
FF00
7F80
7F80
7F80
7F80
7F80
7F80
3F80
3FC0
3FC0
3FC0
3FC0
3FC0
1FC0
1FE0
1FFC
1FFC
0FFC
07FC
03FE
ENDCHAR
STARTCHAR K
ENCODING 75
SWIDTH 667 0
DWIDTH 21 0
BBX 23 23 1 0
BITMAP
FC1FE0
7E1FE0
3F0FF0
1F8FF0
0F8FF0
07CFF0
03EFF0
03FFF0
07FFF0
07FFF8
07FFF8
07FFF8
0FFFF8
0FFFF8
0FFFF8
0FF7FC
1FF3FC
1FF3FC
1FE3FC
1FE3FC
1FE3FC
3FE1FE
3FE1FE
ENDCHAR
STARTCHAR L
ENCODING 76
SWIDTH 506 0
DWIDTH 16 0
BBX 16 23 1 0
BITMAP
0FF8
07F8
07F8
07F8
07F8
07F8
07F8
03F8
03FC
03FC
03FC
03FC
03FC
01FC
01FE
01FE
01FE
01FE
C1FE
FFFE
FFFF
FFFF
7FFF
ENDCHAR
STARTCHAR M
ENCODING 77
SWIDTH 882 0
DWIDTH 28 0
BBX 29 23 1 0
BITMAP
FF01FF00
FF81FF00
FF81FF00
FFC1FF00
FFC3FF80
FFE3FF80
7FE3FF80
7FF3FF80
7FF3FFC0
7F7FFFC0
7FFFFFC0
7FBFFBC0
7FBFFBC0
7F9FF3E0
7F9FF3E0
7F8FF3E0
3F8FF1E0
3F87E1E0
3FC7E1F0
3FC3E1F0
3FC001F0
3FC000F0
3FC000F8
ENDCHAR
STARTCHAR N
ENCODING 78
SWIDTH 644 0
DWIDTH 21 0
BBX 22 23 1 0
BITMAP
F80FE0
F80FE0
F81FE0
781FE0
783FE0
7C3FE0
7C7FE0
7C7FF0
7CFFF0
3CFFF0
3DFFF0
3FFEF0
3FFEF0
3FFCF8
3FFCF8
1FFCF8
1FF8F8
1FF878
1FF078
1FF07C
1FE07C
1FE07C
0FC07C
ENDCHAR
STARTCHAR O
ENCODING 79
SWIDTH 664 0
DWIDTH 21 0
BBX 21 24 2 0
BITMAP
018000
0FFC00
3FFE00
3FFF00
7FFF80
7F1FC0
FF1FE0
FF0FE0
FF0FF0
FF0FF0
FF0FF0
FF0FF0
FF07F8
FF07F8
7F87F8
7F87F8
7F87F8
3F87F8
3FC7F8
1FC7F0
0FFFF0
07FFE0
03FFC0
00FF80
ENDCHAR
STARTCHAR P
ENCODING 80
SWIDTH 616 0
DWIDTH 20 0
BBX 22 23 1 0
BITMAP
1FFFC0
3FFFC0
7FFFC0
FFFFC0
FF9FE0
FF1FE0
FF1FE0
FF1FE0
FF9FE0
7FDFE0
3FFFE0
3FFFF0
0FFFF0
03FFF0
000FF0
000FF0
0007F0
0007F8
0007F8
0007F8
0007F8
0007F8
0007FC
ENDCHAR
STARTCHAR Q
ENCODING 81
SWIDTH 664 0
DWIDTH 21 0
BBX 21 27 2 -3
BITMAP
018000
0FF800
3FFE00
3FFF00
7FFF80
7F1FC0
FF1FE0
FF0FE0
FF0FF0
FF0FF0
FF0FF0
FF0FF0
FF07F8
7F07F8
7F87F8
7F87F8
7F87F8
3F87F8
3FC7F8
1FC7F0
0FFFF0
0FFFE0
3FFFC0
1FFF80
1FFC00
0FC000
0E0000
ENDCHAR
STARTCHAR R
ENCODING 82
SWIDTH 640 0
DWIDTH 20 0
BBX 21 23 1 0
BITMAP
1FFFC0
3FFFC0
7FFFC0
FFFFC0
FF9FC0
FF1FE0
FF1FE0
FF1FE0
7F9FE0
7FDFE0
3FFFE0
1FFFF0
0FFFF0
0FFFF0
0FFFF0
0FFFF0
0FFFF0
1FE7F0
1FE7F8
1FE7F8
3FE7F8
3FE7F8
3FC7F8
ENDCHAR
STARTCHAR S
ENCODING 83
SWIDTH 569 0
DWIDTH 18 0
BBX 18 23 1 0
BITMAP
FFC000
FFF000
FFFC00
FFFC00
E0FE00
40FF00
00FF00
03FF00
0FFF00
1FFF00
7FFF00
7FFE00
FFFC00
FFF800
FFE000
FF8000
7F00C0
7F01C0
7F83C0
3FFFC0
1FFFC0
0FFFC0
03FF80
ENDCHAR
STARTCHAR T
ENCODING 84
SWIDTH 505 0
DWIDTH 16 0
BBX 18 23 2 0
BITMAP
FFFFC0
7FFFC0
7FFFC0
7FFFC0
7FFFC0
03FC00
03FC00
03FC00
03FC00
01FC00
01FE00
01FE00
01FE00
01FE00
01FE00
01FE00
00FE00
00FF00
00FF00
00FF00
00FF00
00FF00
00FF80
ENDCHAR
STARTCHAR U
ENCODING 85
SWIDTH 627 0
DWIDTH 20 0
BBX 21 23 2 0
BITMAP
F83FE0
781FE0
7C1FE0
7C1FE0
7C1FE0
7C1FE0
3C1FE0
3C0FE0
3C0FF0
3E0FF0
3E0FF0
3E0FF0
3E0FF0
1E07F0
1E07F8
1F07F8
1F07F8
1F07F8
0FDFF8
07FFF0
07FFF0
01FFE0
007F80
ENDCHAR
STARTCHAR V
ENCODING 86
SWIDTH 575 0
DWIDTH 18 0
BBX 22 23 2 0
BITMAP
F807FC
7C07F8
7C07F8
3E07F8
3E0FF8
1F0FF8
1F0FF0
0F8FF0
0F8FF0
07CFF0
07CFF0
03CFF0
03EFF0
01FFE0
01FFE0
00FFE0
00FFE0
007FE0
007FE0
003FC0
003FC0
003FC0
003FC0
ENDCHAR
STARTCHAR W
ENCODING 87
SWIDTH 934 0
DWIDTH 30 0
BBX 32 23 3 0
BITMAP
F83FC1FF
F83FC1FF
783FC1FE
7C3FE1FE
3C3FE1FE
3E3FF1FE
3E3FF1FE
1E3FF9FE
1F3FF9FE
0F3FF9FE
0FFFFDFE
07FFBFFC
07FFBFFC
07FF9FFC
03FF9FFC
03FF9FFC
01FF8FFC
01FF8FFC
00FF87FC
00FF87FC
00FF03F8
00FF03F8
00FF07F8
ENDCHAR
STARTCHAR X
ENCODING 88
SWIDTH 676 0
DWIDTH 22 0
BBX 26 23 -1 0
BITMAP
FE0FF800
7E0FF800
3F1FF000
1F9FF000
0FDFF000
07FFE000
03FFE000
01FFC000
00FFC000
00FF8000
00FF8000
00FF8000
01FF8000
01FFC000
03FFE000
03FFE000
07FDF000
07FCF800
07FCFC00
0FF87E00
0FF83F00
1FF81F80
1FF01FC0
ENDCHAR
STARTCHAR Y
ENCODING 89
SWIDTH 598 0
DWIDTH 19 0
BBX 22 23 2 0
BITMAP
FC07FC
7E07FC
3E07F8
3F0FF8
1F0FF8
0F8FF0
07CFF0
07DFF0
03FFE0
01FFE0
01FFE0
00FFC0
007FC0
007FC0
003FC0
003FC0
003FC0
003FC0
003FC0
001FC0
001FE0
001FE0
001FE0
ENDCHAR
STARTCHAR Z
ENCODING 90
SWIDTH 603 0
DWIDTH 19 0
BBX 22 23 0 0
BITMAP
FFFFC0
7FFFC0
7FFFC0
3FFFE0
1FE7E0
1FF000
0FF000
07F800
07FC00
03FC00
01FE00
01FE00
00FF00
00FF80
007F80
003FC0
003FE0
001FE0
1F8FF0
1FFFF0
1FFFF8
1FFFFC
1FFFFC
ENDCHAR
STARTCHAR bracketleft
ENCODING 91
SWIDTH 302 0
DWIDTH 10 0
BBX 12 28 1 -4
BITMAP
FF00
FF00
FF00
1F00
1F00
1F00
1F80
1F80
1F80
0F80
0F80
0F80
0F80
0FC0
07C0
07C0
07C0
07C0
07C0
07E0
07E0
03E0
03E0
03E0
03F0
0FF0
0FF0
0FF0
ENDCHAR
STARTCHAR backslash
ENCODING 92
SWIDTH 432 0
DWIDTH 14 0
BBX 9 23 4 0
BITMAP
0F80
0F00
0F00
1F00
1F00
1F00
1F00
1E00
1E00
3E00
3E00
3E00
3C00
3C00
3C00
7C00
7C00
7C00
7800
7800
F800
F800
F800
ENDCHAR
STARTCHAR bracketright
ENCODING 93
SWIDTH 302 0
DWIDTH 10 0
BBX 12 28 0 -4
BITMAP
FF00
FF00
FF00
FC00
7C00
7C00
7C00
7E00
7E00
3E00
3E00
3E00
3E00
3F00
3F00
1F00
1F00
1F00
1F00
1F80
1F80
1F80
0F80
0F80
0F80
0FF0
0FF0
0FF0
ENDCHAR
STARTCHAR asciicircum
ENCODING 94
SWIDTH 535 0
DWIDTH 17 0
BBX 14 13 2 5
BITMAP
0100
0300
0380
0780
07C0
0FC0
1FE0
1FE0
3FF0
3EF8
7CF8
7C7C
F87C
ENDCHAR
STARTCHAR underscore
ENCODING 95
SWIDTH 439 0
DWIDTH 14 0
BBX 12 1 1 -1
BITMAP
FFF0
ENDCHAR
STARTCHAR grave
ENCODING 96
SWIDTH 297 0
DWIDTH 10 0
BBX 6 5 4 18
BITMAP
7C
78
70
F0
E0
ENDCHAR
STARTCHAR a
ENCODING 97
SWIDTH 564 0
DWIDTH 18 0
BBX 18 17 2 0
BITMAP
03E000
F7F800
FFFC00
FFFE00
7F7F00
7F3F00
7F3F80
7F3F80
7F3F80
7F9FC0
3F9FC0
3F9FC0
3F9FC0
3FFFC0
3FFF80
3FFF80
3FBF00
ENDCHAR
STARTCHAR b
ENCODING 98
SWIDTH 579 0
DWIDTH 19 0
BBX 17 23 2 0
BITMAP
01FC00
01FC00
01FC00
01FC00
01FC00
01FE00
1DFE00
7FFE00
7FFE00
FFFE00
FFFE00
FEFE00
FEFF00
FE7F00
FE7F00
FE7F00
7E7F00
7E7F00
7F7F80
3F7F80
1FFF80
0FFF80
07FB80
ENDCHAR
STARTCHAR c
ENCODING 99
SWIDTH 479 0
DWIDTH 15 0
BBX 15 17 2 0
BITMAP
7C00
FF80
FFE0
FFF0
C7F8
83FC
01FC
01FC
00FE
00FE
00FE
00FE
61FE
7FFE
FFFC
7FF8
1FF0
ENDCHAR
STARTCHAR d
ENCODING 100
SWIDTH 577 0
DWIDTH 18 0
BBX 18 23 2 0
BITMAP
FE0000
FE0000
FE0000
FE0000
FE0000
FF0000
7FE000
7FF800
7FFC00
7FFE00
7F3F00
7FBF80
3FBF80
3F9F80
3F9FC0
3F9FC0
3F9FC0
3F9FC0
3FDFC0
1FFFC0
1FFFC0
1FFF80
1FFF00
ENDCHAR
STARTCHAR e
ENCODING 101
SWIDTH 529 0
DWIDTH 17 0
BBX 16 17 2 0
BITMAP
0F80
3FE0
7FF8
FFFC
FCFC
FCFE
FCFE
FF7E
7FFF
0FFF
01FF
00FF
20FF
79FE
7FFE
3FFC
0FF8
ENDCHAR
STARTCHAR f
ENCODING 102
SWIDTH 357 0
DWIDTH 11 0
BBX 15 23 2 0
BITMAP
FF00
FF80
FFC0
CFE0
07E0
07F0
0FF0
3FFC
3FFE
3FFE
07F0
07F0
07F8
03F8
03F8
03F8
03F8
03F8
03FC
01FC
01FC
01FC
01FC
ENDCHAR
STARTCHAR g
ENCODING 103
SWIDTH 542 0
DWIDTH 17 0
BBX 19 23 0 -6
BITMAP
03C000
EFF800
FFFC00
7FFE00
7F7F00
7F3F00
7F3F80
3FBF80
3F9F80
3F9FC0
3F9FC0
3F9FC0
3F9FC0
3FFFC0
3FFF80
1FFF00
1FFE00
1FC000
1FC0C0
0FF7C0
0FFFC0
07FFE0
01FFE0
ENDCHAR
STARTCHAR h
ENCODING 104
SWIDTH 575 0
DWIDTH 18 0
BBX 18 23 1 0
BITMAP
01FE00
01FE00
00FE00
00FE00
00FE00
00FE00
3CFE00
7FFF00
FFFF00
FFFF00
FFFF00
FE7F00
FE7F00
FF7F00
7F7F80
7F3F80
7F3F80
7F3F80
7F3F80
7FBF80
7FBFC0
3FBFC0
3F9FC0
ENDCHAR
STARTCHAR i
ENCODING 105
SWIDTH 302 0
DWIDTH 10 0
BBX 11 23 1 0
BITMAP
FE00
FF00
FF00
FF00
7F00
3E00
0000
7F80
3F80
3F80
3F80
3F80
3F80
3FC0
3FC0
1FC0
1FC0
1FC0
1FC0
1FC0
1FE0
0FE0
0FE0
ENDCHAR
STARTCHAR j
ENCODING 106
SWIDTH 297 0
DWIDTH 10 0
BBX 15 29 -3 -6
BITMAP
7E00
FF00
FF00
FF80
7F00
3E00
0000
3F80
3F80
3F80
3F80
3F80
3F80
3FC0
1FC0
1FC0
1FC0
1FC0
1FC0
1FE0
0FE0
0FE0
0FE0
0FE0
07F0
07FE
03FE
03FE
00FE
ENDCHAR
STARTCHAR k
ENCODING 107
SWIDTH 562 0
DWIDTH 18 0
BBX 19 23 1 0
BITMAP
00FE00
00FE00
00FE00
00FF00
00FF00
007F00
E07F00
F87F00
FE7F00
7F7F00
7FFF80
1FFF80
1FFF80
1FFF80
3FFF80
3FFF80
3FFFC0
3FBFC0
3F9FC0
3F9FC0
3F9FC0
7F9FC0
7F9FE0
ENDCHAR
STARTCHAR l
ENCODING 108
SWIDTH 297 0
DWIDTH 10 0
BBX 11 23 1 0
BITMAP
FE00
FE00
FF00
FF00
7F00
7F00
7F00
7F00
7F00
7F80
3F80
3F80
3F80
3F80
3F80
3FC0
1FC0
1FC0
1FC0
1FC0
1FC0
1FE0
1FE0
ENDCHAR
STARTCHAR m
ENCODING 109
SWIDTH 846 0
DWIDTH 27 0
BBX 27 17 1 0
BITMAP
3C1C0000
7FFFFF00
FFFFFF00
FFFFFF80
FFFFFF80
FE7F3F80
FF7F3F80
FF7F3F80
7F7FBF80
7F3FBF80
7F3FBFC0
7F3F9FC0
7F3F9FC0
7FBF9FC0
7FBFDFC0
3F9FDFC0
3F9FDFE0
ENDCHAR
STARTCHAR n
ENCODING 110
SWIDTH 577 0
DWIDTH 18 0
BBX 18 17 1 0
BITMAP
3C0000
7FFF00
FFFF00
FFFF00
FFFF00
FE7F00
FE7F00
FF7F00
7F7F80
7F3F80
7F3F80
7F3F80
7F3F80
7FBF80
7FBFC0
3FBFC0
3F9FC0
ENDCHAR
STARTCHAR o
ENCODING 111
SWIDTH 547 0
DWIDTH 18 0
BBX 17 17 2 0
BITMAP
0F8000
3FF000
7FF800
FFFC00
FEFE00
FEFE00
FE7F00
FE7F00
FE7F00
FE7F00
FE7F80
7F7F80
7F7F00
3FFF00
3FFF00
0FFE00
07FC00
ENDCHAR
STARTCHAR p
ENCODING 112
SWIDTH 552 0
DWIDTH 18 0
BBX 19 23 0 -6
BITMAP
1E0000
3FFE00
7FFE00
FFFE00
FFFF00
FE7F00
FE7F00
FE7F00
FE7F00
FE7F00
7F7F00
7F3F80
3F3F80
3FFF80
1FFF80
0FFF80
07FF80
003FC0
001FC0
001FC0
001FC0
001FC0
001FE0
ENDCHAR
STARTCHAR q
ENCODING 113
SWIDTH 561 0
DWIDTH 18 0
BBX 18 23 2 -6
BITMAP
43C000
EFF800
FFFC00
FFFE00
FF7F00
7F3F00
7F3F00
7F3F80
7F3F80
7F3F80
7FBF80
3FBFC0
3FBF80
3FFF80
3FFF80
3FFF00
3FFE00
1FC000
1FC000
1FC000
1FC000
1FC000
1FE000
ENDCHAR
STARTCHAR r
ENCODING 114
SWIDTH 384 0
DWIDTH 12 0
BBX 14 17 1 0
BITMAP
E000
77F0
7FF0
7FF0
7FF0
1FF0
07F0
07F0
03F8
03F8
03F8
03F8
03F8
03F8
03FC
01FC
01FC
ENDCHAR
STARTCHAR s
ENCODING 115
SWIDTH 487 0
DWIDTH 16 0
BBX 15 17 1 0
BITMAP
7E00
FFC0
FFE0
FFF0
C3F8
87F8
1FF8
7FF8
7FF8
FFF0
FFE0
FF84
FE0E
7F7E
7FFE
3FFE
0FFC
ENDCHAR
STARTCHAR t
ENCODING 116
SWIDTH 361 0
DWIDTH 12 0
BBX 12 21 2 0
BITMAP
3F80
3F80
3F80
3F80
3F80
FFF0
FFF0
FFF0
1FC0
1FC0
1FC0
1FE0
0FE0
0FE0
0FE0
0FE0
0FE0
7FE0
7FE0
7FE0
3FC0
ENDCHAR
STARTCHAR u
ENCODING 117
SWIDTH 576 0
DWIDTH 18 0
BBX 18 17 2 -1
BITMAP
FF7F00
FF7F80
FF7F80
7F3F80
7F3F80
7F3F80
7F3F80
7F3F80
7FBFC0
3F9FC0
3F9FC0
3F9FC0
3FFFC0
3FFFC0
3FFFC0
3FFF80
000600
ENDCHAR
STARTCHAR v
ENCODING 118
SWIDTH 484 0
DWIDTH 15 0
BBX 17 16 2 0
BITMAP
FC7F80
7C7F80
7C7F80
3E7F00
3E7F00
3F7F00
1F7F00
1F7F00
0FFF00
0FFE00
07FE00
07FE00
03FE00
03FE00
01FC00
00FC00
ENDCHAR
STARTCHAR w
ENCODING 119
SWIDTH 760 0
DWIDTH 24 0
BBX 26 16 2 0
BITMAP
FC7E3FC0
7C7E3F80
7CFE3F80
3EFF3F80
3EFF3F80
3EFF7F80
1FFFFF80
1FFFFF00
0FFFFF00
0FFFFF00
07FFFF00
07FDFF00
03FDFF00
03FCFE00
01FCFE00
01FC7E00
ENDCHAR
STARTCHAR x
ENCODING 120
SWIDTH 525 0
DWIDTH 17 0
BBX 19 16 0 0
BITMAP
F8FE00
7DFE00
3FFC00
3FFC00
1FFC00
0FF800
0FF800
0FF000
1FF800
1FFC00
1FFC00
3FFE00
3FDF00
3FDF80
7F8FC0
7F8FE0
ENDCHAR
STARTCHAR y
ENCODING 121
SWIDTH 459 0
DWIDTH 15 0
BBX 19 22 -1 -6
BITMAP
F8FE00
F8FE00
FCFE00
7CFE00
7CFE00
3EFE00
3EFE00
1FFC00
1FFC00
0FFC00
0FFC00
07FC00
07F800
03F800
03F800
01F800
01F800
00FCC0
007FC0
003FE0
001FE0
0007E0
ENDCHAR
STARTCHAR z
ENCODING 122
SWIDTH 504 0
DWIDTH 16 0
BBX 17 16 1 0
BITMAP
FFFC00
FFFE00
7FFE00
3F9E00
3FC200
1FE000
0FE000
0FF000
07F800
03F800
43FC00
21FE00
3FFE00
3FFF00
3FFF80
3FFF80
ENDCHAR
STARTCHAR braceleft
ENCODING 123
SWIDTH 366 0
DWIDTH 12 0
BBX 11 31 1 -4
BITMAP
7F00
7F00
FF00
FC00
7C00
7C00
7C00
7C00
7E00
7E00
7E00
7E00
7E00
3E00
7C00
F800
3E00
3E00
3F00
3F00
3F00
1F00
1F00
1F00
1F00
1F80
1F80
1F80
0FE0
0FE0
07E0
ENDCHAR
STARTCHAR bar
ENCODING 124
SWIDTH 302 0
DWIDTH 10 0
BBX 5 23 4 0
BITMAP
F8
F8
F8
F8
F8
F8
F8
F8
F8
F8
F8
F8
F8
F8
F8
F8
F8
F8
F8
F8
F8
F8
F8
ENDCHAR
STARTCHAR braceright
ENCODING 125
SWIDTH 366 0
DWIDTH 12 0
BBX 12 31 2 -4
BITMAP
FE00
FF00
FF00
1F00
1F00
1F80
1F80
1F80
1F80
1F80
0F80
0F80
0F80
0FC0
07C0
01F0
07C0
07C0
07C0
07C0
07C0
07C0
07E0
07E0
07E0
07E0
03E0
03E0
0FE0
0FE0
0FC0
ENDCHAR
STARTCHAR asciitilde
ENCODING 126
SWIDTH 515 0
DWIDTH 16 0
BBX 15 7 2 8
BITMAP
1C0E
3F9E
7FFE
7FFC
7FFC
F1F8
F000
ENDCHAR
STARTCHAR exclamdown
ENCODING 161
SWIDTH 302 0
DWIDTH 10 0
BBX 11 23 1 0
BITMAP
07E0
0FE0
1FE0
1FE0
1FE0
0FC0
0000
0F80
0F80
1F80
1F80
1F80
1F80
3F80
3F80
3F80
3F80
7F00
7F00
7F00
FF00
FF00
FF00
ENDCHAR
STARTCHAR cent
ENCODING 162
SWIDTH 490 0
DWIDTH 16 0
BBX 15 21 2 -2
BITMAP
00F8
00F8
00FC
03FE
0FFE
1FFE
3FC4
7F00
7F00
FE00
FE00
FE00
FE00
FE00
FF08
FFFC
7FFC
7FFC
1FE0
07C0
07C0
ENDCHAR
STARTCHAR sterling
ENCODING 163
SWIDTH 574 0
DWIDTH 18 0
BBX 19 24 1 0
BITMAP
001000
01FF80
03FFE0
0FFFE0
0FFFE0
1FE1C0
1FE0C0
1FC040
1FE000
1FE000
1FE000
1FF000
3FFF00
3FFF00
3FFF00
3FFF00
07E000
07E000
0FC000
0F80C0
1FFF80
7FFF80
FFFF80
FFFF00
ENDCHAR
STARTCHAR currency
ENCODING 164
SWIDTH 507 0
DWIDTH 16 0
BBX 13 13 3 5
BITMAP
4010
EFB8
7FF0
3070
6030
6030
6030
6030
6030
3060
7FF0
EFB8
4010
ENDCHAR
STARTCHAR yen
ENCODING 165
SWIDTH 742 0
DWIDTH 24 0
BBX 23 23 3 0
BITMAP
7FE03E
3FE07E
3FE07C
1FE0F8
1FE1F8
1FF1F0
0FF3E0
0FF3E0
0FF7C0
07FF80
07FF80
7FFF00
7FFFF0
03FFF0
03FC00
7FFFF0
FFFFF0
03F800
03F800
07F800
07F800
07F800
07F800
ENDCHAR
STARTCHAR section
ENCODING 167
SWIDTH 630 0
DWIDTH 20 0
BBX 21 31 1 -8
BITMAP
00FFC0
01FFE0
03FFF0
07E7F0
0FC1F8
0FC1F8
0FE0F8
0FF800
0FFE00
07FF80
1FFFC0
1FFFE0
3E7FE0
7E1FF0
7E0FF0
7E03F0
7F83E0
7FE3E0
7FFFE0
3FFFC0
1FFF80
07FF00
01FF80
007F80
F83F80
F81F80
FC1F00
FE7F00
7FFE00
3FFC00
0FF000
ENDCHAR
STARTCHAR dieresis
ENCODING 168
SWIDTH 359 0
DWIDTH 11 0
BBX 12 5 3 18
BITMAP
78F0
F9F0
F9F0
F9F0
F1E0
ENDCHAR
STARTCHAR copyright
ENCODING 169
SWIDTH 890 0
DWIDTH 28 0
BBX 24 23 4 0
BITMAP
01FF00
07FFC0
0F00F0
1C0078
380C38
707F9C
60FF8E
E1E106
C3C006
C38006
C70007
C70007
C70007
C70006
C78006
E3C206
63FF0C
71FE1C
383038
1C0070
0F00E0
07FFC0
01FF00
ENDCHAR
STARTCHAR ordfeminine
ENCODING 170
SWIDTH 494 0
DWIDTH 16 0
BBX 15 16 2 7
BITMAP
07DE
0FFE
1FFE
3C3E
3C1C
381C
381C
3C3C
3EFC
3FFC
1FFC
0200
0000
7FF8
7FF8
FFF8
ENDCHAR
STARTCHAR guillemotleft
ENCODING 171
SWIDTH 465 0
DWIDTH 15 0
BBX 14 13 2 2
BITMAP
0F3C
1F78
1EF8
3CF0
79E0
FBE0
F3C0
F3C0
FBE0
FBE0
79E0
7DF0
3CF0
ENDCHAR
STARTCHAR logicalnot
ENCODING 172
SWIDTH 680 0
DWIDTH 22 0
BBX 19 9 3 7
BITMAP
FFFFE0
FFFFE0
FFFFE0
FFFFE0
0001E0
0001E0
0001E0
0001E0
0001E0
ENDCHAR
STARTCHAR macron
ENCODING 175
SWIDTH 328 0
DWIDTH 11 0
BBX 11 3 3 18
BITMAP
FFE0
FFE0
FFC0
ENDCHAR
STARTCHAR degree
ENCODING 176
SWIDTH 360 0
DWIDTH 12 0
BBX 10 9 3 14
BITMAP
3F00
7380
6080
40C0
C0C0
4080
6180
3F00
0C00
ENDCHAR
STARTCHAR acute
ENCODING 180
SWIDTH 286 0
DWIDTH 9 0
BBX 6 5 6 18
BITMAP
3C
38
70
E0
C0
ENDCHAR
STARTCHAR paragraph
ENCODING 182
SWIDTH 614 0
DWIDTH 20 0
BBX 19 23 3 0
BITMAP
07FFE0
1FFFE0
3FFFE0
780000
707380
E07380
E07300
E07300
E07700
E06700
706700
7FE700
3FE700
0FE700
00E600
00E600
00EE00
00CE00
00CE00
01CE00
01CE00
01CE00
01CC00
ENDCHAR
STARTCHAR periodcentered
ENCODING 183
SWIDTH 295 0
DWIDTH 9 0
BBX 8 6 2 6
BITMAP
3E
7F
FF
FF
FF
7E
ENDCHAR
STARTCHAR cedilla
ENCODING 184
SWIDTH 194 0
DWIDTH 6 0
BBX 6 6 1 -7
BITMAP
78
FC
9C
18
30
E0
ENDCHAR
STARTCHAR ordmasculine
ENCODING 186
SWIDTH 490 0
DWIDTH 16 0
BBX 14 16 2 7
BITMAP
07F0
0FF8
1FFC
3C3C
381C
381C
381C
3C3C
3EF8
1FF0
0FE0
0380
0000
7FF8
7FF8
FFF8
ENDCHAR
STARTCHAR guillemotright
ENCODING 187
SWIDTH 465 0
DWIDTH 15 0
BBX 15 13 1 2
BITMAP
3CF0
1E78
1E78
1F7C
0FBE
0FBE
079E
0FBE
1F7C
1E78
3CF0
79E0
FBE0
ENDCHAR
STARTCHAR questiondown
ENCODING 191
SWIDTH 501 0
DWIDTH 16 0
BBX 15 23 1 0
BITMAP
01FC
03FC
03FC
03FC
03FC
01F0
0000
01F0
03F0
03F0
07F0
1FE0
3FE0
7FE0
FFE0
FF80
FF08
FF1C
FF3C
FFFE
7FFE
7FF8
1FE0
ENDCHAR
STARTCHAR Agrave
ENCODING 192
SWIDTH 652 0
DWIDTH 21 0
BBX 21 29 0 0
BITMAP
001E00
000F00
000700
000700
000380
000000
003FC0
003FC0
003FC0
007FC0
007FC0
00FFC0
00FFE0
01FFE0
01FFE0
03FFE0
03DFE0
07DFE0
079FF0
0F9FF0
0FFFF0
1FFFF0
1FFFF0
3FFFF0
3FFFF8
7C0FF8
7C0FF8
F80FF8
F80FF8
ENDCHAR
STARTCHAR Aacute
ENCODING 193
SWIDTH 652 0
DWIDTH 21 0
BBX 21 29 0 0
BITMAP
0001E0
0003C0
000780
000700
000E00
000000
003FC0
003FC0
003FC0
007FC0
007FC0
00FFC0
00FFE0
01FFE0
01FFE0
03FFE0
03DFE0
07DFE0
079FF0
0F9FF0
0FFFF0
1FFFF0
1FFFF0
3FFFF0
3FFFF8
7C0FF8
7C0FF8
F80FF8
F80FF8
ENDCHAR
STARTCHAR Acircumflex
ENCODING 194
SWIDTH 652 0
DWIDTH 21 0
BBX 21 29 0 0
BITMAP
000780
000FC0
001DE0
0038E0
0070F0
000000
003FC0
003FC0
003FC0
007FC0
007FC0
00FFC0
00FFE0
01FFE0
01FFE0
03FFE0
03DFE0
07DFE0
079FF0
0F9FF0
0FFFF0
1FFFF0
1FFFF0
3FFFF0
3FFFF8
7C0FF8
7C0FF8
F80FF8
F80FF8
ENDCHAR
STARTCHAR Atilde
ENCODING 195
SWIDTH 652 0
DWIDTH 21 0
BBX 21 29 0 0
BITMAP
000800
007FF0
007FF0
007FF0
000000
000000
003FC0
003FC0
003FC0
007FC0
007FC0
00FFC0
00FFE0
01FFE0
01FFE0
03FFE0
03DFE0
07DFE0
079FF0
0F9FF0
0FFFF0
1FFFF0
1FFFF0
3FFFF0
3FFFF8
7C0FF8
7C0FF8
F80FF8
F80FF8
ENDCHAR
STARTCHAR Adieresis
ENCODING 196
SWIDTH 652 0
DWIDTH 21 0
BBX 21 27 0 0
BITMAP
001020
00FCF8
00FDF8
00F9F8
00FFF0
003FC0
003FC0
007FC0
007FC0
00FFC0
00FFE0
01FFE0
01FFE0
03FFE0
03DFE0
07DFE0
079FF0
0F9FF0
0FFFF0
1FFFF0
1FFFF0
3FFFF0
3FFFF8
7C0FF8
7C0FF8
F80FF8
F80FF8
ENDCHAR
STARTCHAR Aring
ENCODING 197
SWIDTH 652 0
DWIDTH 21 0
BBX 21 29 0 0
BITMAP
000F80
001F80
0018C0
0018C0
001F80
000F00
003FC0
003FC0
003FC0
007FC0
007FC0
00FFE0
00FFE0
01FFE0
01FFE0
03FFE0
03DFE0
07DFE0
079FF0
0F9FF0
0FFFF0
1FFFF0
1FFFF0
3FFFF0
3FFFF8
7C0FF8
7C0FF8
F80FF8
F80FF8
ENDCHAR
STARTCHAR AE
ENCODING 198
SWIDTH 954 0
DWIDTH 31 0
BBX 33 23 0 0
BITMAP
0007FFFF80
0003FFFF80
0007FFFF80
0007FFFF80
000FFF8000
001F7F8000
001E7F0000
003EFF0000
007CFF0000
0078FFFC00
00F8FFFC00
01F0FFFC00
01F0FFF800
03E0FE1800
07FFFE0000
07FFFE0000
0FFFFE0000
1FFFFE0000
1FFFFE0600
3E01FFFE00
7C03FFFE00
FC03FFFC00
F803FFFC00
ENDCHAR
STARTCHAR Ccedilla
ENCODING 199
SWIDTH 602 0
DWIDTH 19 0
BBX 20 30 2 -7
BITMAP
007FF0
01FFF0
03FFE0
0FFFE0
0FE0E0
1FC060
3FC020
3F8020
7F8000
7F8000
7F8000
FF0000
FF0000
FF0000
FF0000
FF0000
FF0000
FF8180
7FC380
7FFFC0
3FFFC0
1FFF00
07FC00
000000
00F000
01F000
017000
003000
006000
01C000
ENDCHAR
STARTCHAR Egrave
ENCODING 200
SWIDTH 555 0
DWIDTH 18 0
BBX 19 29 1 0
BITMAP
007800
007800
003800
001C00
001C00
000000
0FFFE0
0FFFE0
1FFFE0
1FFFE0
1FE000
1FE000
1FE000
1FE000
1FC000
3FFF00
3FFF00
3FFF00
3FFF00
3FC600
3F8000
7F8000
7F8000
7F8000
7F8180
7FFF80
7FFF80
FFFF80
FFFF80
ENDCHAR
STARTCHAR Eacute
ENCODING 201
SWIDTH 555 0
DWIDTH 18 0
BBX 19 29 1 0
BITMAP
000F00
000E00
001C00
003800
007000
000000
0FFFE0
0FFFE0
1FFFE0
1FFFE0
1FE000
1FE000
1FE000
1FE000
1FC000
3FFF00
3FFF00
3FFF00
3FFF00
3FC600
3F8000
7F8000
7F8000
7F8000
7F8180
7FFF80
7FFF80
FFFF80
FFFF80
ENDCHAR
STARTCHAR Ecircumflex
ENCODING 202
SWIDTH 555 0
DWIDTH 18 0
BBX 19 29 1 0
BITMAP
003E00
007E00
00E700
01E780
03C380
000000
0FFFE0
0FFFE0
1FFFE0
1FFFE0
1FE000
1FE000
1FE000
1FE000
1FC000
3FFF00
3FFF00
3FFF00
3FFF00
3FC600
3F8000
7F8000
7F8000
7F8000
7F8180
7FFF80
7FFF80
FFFF80
FFFF80
ENDCHAR
STARTCHAR Edieresis
ENCODING 203
SWIDTH 555 0
DWIDTH 18 0
BBX 19 30 1 0
BITMAP
01E3C0
03E7E0
03F7E0
03E7C0
03E7C0
000000
000000
0FFFE0
0FFFE0
1FFFE0
1FFFE0
1FE000
1FE000
1FE000
1FE000
1FC000
3FFF00
3FFF00
3FFF00
3FFF00
3FC600
3F8000
7F8000
7F8000
7F8000
7F8180
7FFF80
7FFF80
FFFF80
FFFF80
ENDCHAR
STARTCHAR Igrave
ENCODING 204
SWIDTH 318 0
DWIDTH 10 0
BBX 12 29 1 0
BITMAP
0780
0380
03C0
01C0
00C0
0000
0FF0
1FF0
1FE0
1FE0
1FE0
1FE0
1FE0
1FC0
3FC0
3FC0
3FC0
3FC0
3FC0
3F80
3F80
7F80
7F80
7F80
7F80
7F80
FF00
FF00
FF00
ENDCHAR
STARTCHAR Iacute
ENCODING 205
SWIDTH 318 0
DWIDTH 10 0
BBX 13 29 1 0
BITMAP
00F8
00E0
01C0
0380
0300
0000
0FF0
1FF0
1FE0
1FE0
1FE0
1FE0
1FE0
1FC0
3FC0
3FC0
3FC0
3FC0
3FC0
3F80
3F80
7F80
7F80
7F80
7F80
7F80
FF00
FF00
FF00
ENDCHAR
STARTCHAR Icircumflex
ENCODING 206
SWIDTH 318 0
DWIDTH 10 0
BBX 13 29 1 0
BITMAP
03E0
0770
0F70
1E78
3C38
0000
0FF0
1FF0
1FE0
1FE0
1FE0
1FE0
1FE0
1FC0
3FC0
3FC0
3FC0
3FC0
3FC0
3F80
3F80
7F80
7F80
7F80
7F80
7F80
FF00
FF00
FF00
ENDCHAR
STARTCHAR Idieresis
ENCODING 207
SWIDTH 318 0
DWIDTH 10 0
BBX 15 30 1 0
BITMAP
1E1C
3F3E
3F7E
3E7E
3E7C
0000
0000
0FF0
1FF0
1FE0
1FE0
1FE0
1FE0
1FE0
1FC0
3FC0
3FC0
3FC0
3FC0
3FC0
3F80
3F80
7F80
7F80
7F80
7F80
7F80
FF00
FF00
FF00
ENDCHAR
STARTCHAR Ntilde
ENCODING 209
SWIDTH 644 0
DWIDTH 21 0
BBX 22 28 1 0
BITMAP
00FFE0
00FFE0
00FFE0
000000
000000
0FC07C
0FE07C
1FE07C
1FF07C
1FF078
1FF878
1FF8F8
1FFCF8
1FFCF8
3FFCF8
3FFEF0
3FFEF0
3DFFF0
3CFFF0
3CFFF0
7C7FF0
7C7FF0
7C3FE0
7C3FE0
781FE0
781FE0
F80FE0
F80FE0
ENDCHAR
STARTCHAR Ograve
ENCODING 210
SWIDTH 664 0
DWIDTH 21 0
BBX 21 29 2 0
BITMAP
007C00
003C00
001C00
001E00
000E00
000C00
01FF80
03FFE0
0FFFE0
0FFFF0
1FC7F0
3FC7F8
3F87F8
7F87F8
7F87F8
7F87F8
7F07F8
FF07F8
FF0FF0
FF0FF0
FF0FF0
FF0FF0
FF0FE0
FF1FE0
7F1FC0
7FFF80
3FFF00
1FFE00
0FF800
ENDCHAR
STARTCHAR Oacute
ENCODING 211
SWIDTH 664 0
DWIDTH 21 0
BBX 21 29 2 0
BITMAP
000780
000F00
000E00
001C00
003800
000C00
01FF80
03FFE0
0FFFE0
0FFFF0
1FC7F0
3FC7F8
3F87F8
7F87F8
7F87F8
7F87F8
7F07F8
FF07F8
FF0FF0
FF0FF0
FF0FF0
FF0FF0
FF0FE0
FF1FE0
7F1FC0
7FFF80
3FFF00
1FFE00
0FF800
ENDCHAR
STARTCHAR Ocircumflex
ENCODING 212
SWIDTH 664 0
DWIDTH 21 0
BBX 21 29 2 0
BITMAP
001E00
003F00
007380
00E380
01E3C0
000C00
01FF80
03FFE0
0FFFE0
0FFFF0
1FC7F0
3FC7F8
3F87F8
7F87F8
7F87F8
7F87F8
7F07F8
FF07F8
FF0FF0
FF0FF0
FF0FF0
FF0FF0
FF0FE0
FF1FE0
7F1FC0
7FFF80
3FFF00
1FFE00
0FF800
ENDCHAR
STARTCHAR Otilde
ENCODING 213
SWIDTH 664 0
DWIDTH 21 0
BBX 21 29 2 0
BITMAP
002000
00FFC0
01FFC0
01FFC0
000000
000C00
01FF80
03FFE0
0FFFE0
0FFFF0
1FC7F0
3FC7F8
3F87F8
7F87F8
7F87F8
7F87F8
7F07F8
FF07F8
FF0FF0
FF0FF0
FF0FF0
FF0FF0
FF0FE0
FF1FE0
7F1FC0
7FFF80
3FFF00
1FFE00
0FF800
ENDCHAR
STARTCHAR Odieresis
ENCODING 214
SWIDTH 664 0
DWIDTH 21 0
BBX 22 26 2 0
BITMAP
0F0038
1F00FC
1F80FC
1FFFF8
1FFFF8
07FFE0
0FFFF0
1FC7F0
3FC7F8
3F87F8
7F87F8
7F87F8
7F87F8
FF07F8
FF07F8
FF0FF0
FF0FF0
FF0FF0
FF0FF0
FF0FE0
FF1FE0
7F1FC0
7FFF80
3FFF00
1FFE00
0FF800
ENDCHAR
STARTCHAR Oslash
ENCODING 216
SWIDTH 663 0
DWIDTH 21 0
BBX 21 25 2 -1
BITMAP
001820
01FFF0
03FFE0
07FFE0
0FFFF0
1FE7F0
3FC7F8
3FC7F8
7F8FF8
7F8FF8
7F9FF8
FFB7F8
FF77F8
FF6FF0
FFCFF0
FF8FF0
FF8FE0
FF1FE0
FF1FE0
7F1FC0
7FFF80
3FFF00
3FFE00
7FF800
200000
ENDCHAR
STARTCHAR Ugrave
ENCODING 217
SWIDTH 627 0
DWIDTH 20 0
BBX 21 29 2 0
BITMAP
007800
007800
003C00
001C00
000C00
000000
1FE0F8
3FE0F0
3FC0F0
3FC1F0
3FC1F0
3FC1F0
3FC1F0
3F81E0
7F81E0
7F83E0
7F83E0
7F83E0
7F83E0
7F83C0
7F03C0
FF03C0
FF07C0
FF07C0
FFDF80
7FFF80
7FFF00
3FFC00
0FF800
ENDCHAR
STARTCHAR Uacute
ENCODING 218
SWIDTH 627 0
DWIDTH 20 0
BBX 21 29 2 0
BITMAP
000F80
000E00
001C00
003800
003000
000000
1FE0F8
3FE0F0
3FC0F0
3FC1F0
3FC1F0
3FC1F0
3FC1F0
3F81E0
7F81E0
7F83E0
7F83E0
7F83E0
7F83E0
7F83C0
7F03C0
FF03C0
FF07C0
FF07C0
FFDF80
7FFF80
7FFF00
3FFC00
0FF800
ENDCHAR
STARTCHAR Ucircumflex
ENCODING 219
SWIDTH 627 0
DWIDTH 20 0
BBX 21 29 2 0
BITMAP
003E00
007E00
00E700
01E780
03C380
000000
1FE0F8
3FE0F0
3FC0F0
3FC1F0
3FC1F0
3FC1F0
3FC1F0
3F81E0
7F81E0
7F83E0
7F83E0
7F83E0
7F83E0
7F83C0
7F03C0
FF03C0
FF07C0
FF07C0
FFDF80
7FFF80
7FFF00
3FFC00
0FF800
ENDCHAR
STARTCHAR Udieresis
ENCODING 220
SWIDTH 627 0
DWIDTH 20 0
BBX 21 26 2 0
BITMAP
00F0E0
01FBF0
01FBF0
1FF3F8
3FF3F0
3FC0F0
3FC1F0
3FC1F0
3FC1F0
3FC1F0
3F81E0
7F81E0
7F83E0
7F83E0
7F83E0
7F83E0
7F83C0
7F03C0
FF03C0
FF07C0
FF07C0
FFDF80
7FFF80
7FFF00
3FFC00
0FF800
ENDCHAR
STARTCHAR germandbls
ENCODING 223
SWIDTH 597 0
DWIDTH 19 0
BBX 20 23 1 0
BITMAP
00FFC0
03FFE0
07FFE0
0FF7F0
0FE7F0
1FC7E0
1FCFE0
1FDFC0
1FFFC0
3FBF00
3FBF80
3FBFC0
3F9FC0
3F9FE0
3F9FE0
7F8FE0
7F1FE0
7F1FE0
7F1FC0
7F7FC0
7FFF80
FFFF00
FEFE00
ENDCHAR
STARTCHAR agrave
ENCODING 224
SWIDTH 564 0
DWIDTH 18 0
BBX 18 23 2 0
BITMAP
03E000
01E000
00E000
00F000
007000
000000
01E100
0FFBC0
1FFF80
3FFF80
3F3F80
7F7F80
7E7F00
FE7F00
FE7F00
FE7F00
FE7F00
FE7F00
FEFF00
FFFE00
FFFE00
7FFE00
3FFE00
ENDCHAR
STARTCHAR aacute
ENCODING 225
SWIDTH 564 0
DWIDTH 18 0
BBX 18 23 2 0
BITMAP
001E00
003C00
007800
007000
00E000
000000
01E100
0FFBC0
1FFF80
3FFF80
3F3F80
7F7F80
7E7F00
FE7F00
FE7F00
FE7F00
FE7F00
FE7F00
FEFF00
FFFE00
FFFE00
7FFE00
3FFE00
ENDCHAR
STARTCHAR acircumflex
ENCODING 226
SWIDTH 564 0
DWIDTH 18 0
BBX 18 23 2 0
BITMAP
007000
00F800
01DC00
039C00
071E00
000000
01E100
0FFBC0
1FFF80
3FFF80
3F3F80
7F7F80
7E7F00
FE7F00
FE7F00
FE7F00
FE7F00
FE7F00
FEFF00
FFFE00
FFFE00
7FFE00
3FFE00
ENDCHAR
STARTCHAR atilde
ENCODING 227
SWIDTH 564 0
DWIDTH 18 0
BBX 18 22 2 0
BITMAP
07C100
07FF00
07FF00
05FE00
000000
01E100
0FFBC0
1FFF80
3FFF80
3F3F80
7F7F80
7E7F00
FE7F00
FE7F00
FE7F00
FE7F00
FE7F00
FEFF00
FFFE00
FFFE00
7FFE00
3FFE00
ENDCHAR
STARTCHAR adieresis
ENCODING 228
SWIDTH 574 0
DWIDTH 18 0
BBX 18 23 1 0
BITMAP
03E7C0
07EFC0
07EFC0
07CF80
078780
000000
01F000
07FBC0
0FFFC0
1FFFC0
3FBF80
3F3F80
7F3F80
7F3F80
7E3F80
FE7F80
FE7F00
FE7F00
FE7F00
FFFF00
7FFF00
7FFF00
3F7F00
ENDCHAR
STARTCHAR aring
ENCODING 229
SWIDTH 586 0
DWIDTH 19 0
BBX 18 24 1 0
BITMAP
001800
003C00
006600
006600
003C00
003C00
000000
01F000
07FBC0
0FFFC0
1FFFC0
3FBF80
3F3F80
7F3F80
7F3F80
7E3F80
FE7F80
FE7F00
FE7F00
FE7F00
FFFF00
7FFF00
7FFF00
3F7F00
ENDCHAR
STARTCHAR ae
ENCODING 230
SWIDTH 813 0
DWIDTH 26 0
BBX 26 17 1 0
BITMAP
01F07C00
07FDFF00
0FFFFF80
1FFFFF80
3FBFDFC0
3F3F9FC0
7F3F9FC0
7F3FBFC0
7F3FFF00
FE7FF800
FE7FE000
FE7F8000
FE7FC300
FFFFEF00
7FFFFF80
7FFFFE00
3F7FFC00
ENDCHAR
STARTCHAR ccedilla
ENCODING 231
SWIDTH 490 0
DWIDTH 16 0
BBX 15 24 2 -7
BITMAP
007C
03FE
0FFE
1FFE
3FC4
7F00
7F00
FE00
FE00
FE00
FE00
FE00
FF08
FFFC
7FFC
7FFC
1FF0
0000
0780
0780
0980
0180
0700
0C00
ENDCHAR
STARTCHAR egrave
ENCODING 232
SWIDTH 529 0
DWIDTH 17 0
BBX 16 23 2 0
BITMAP
03C0
03C0
01E0
00E0
00E0
0000
01F0
0FFC
1FFE
3FFE
7F7F
7E3F
FE7F
FEFF
FFFC
FFE0
FF80
FE00
FF0C
FF9C
7FFE
7FF8
1FF0
ENDCHAR
STARTCHAR eacute
ENCODING 233
SWIDTH 529 0
DWIDTH 17 0
BBX 16 23 2 0
BITMAP
003C
0078
0070
00E0
01C0
0000
01F0
0FFC
1FFE
3FFE
7F7F
7E3F
FE7F
FEFF
FFFC
FFE0
FF80
FE00
FF0C
FF9C
7FFE
7FF8
1FF0
ENDCHAR
STARTCHAR ecircumflex
ENCODING 234
SWIDTH 529 0
DWIDTH 17 0
BBX 16 23 2 0
BITMAP
00F0
01F0
03B8
07BC
0F1C
0000
01F0
0FFC
1FFE
3FFE
7F7F
7E3F
FE7F
FEFF
FFFC
FFE0
FF80
FE00
FF0C
FF9C
7FFE
7FF8
1FF0
ENDCHAR
STARTCHAR edieresis
ENCODING 235
SWIDTH 529 0
DWIDTH 17 0
BBX 16 23 2 0
BITMAP
0F9F
0F9F
1FBF
1FBF
0F1E
0000
01F0
0FFC
1FFE
3FFE
7F7F
7E3F
FE7F
FEFF
FFFC
FFE0
FF80
FE00
FF0C
FF9C
7FFE
7FF8
1FF0
ENDCHAR
STARTCHAR igrave
ENCODING 236
SWIDTH 306 0
DWIDTH 10 0
BBX 10 23 1 0
BITMAP
1F00
0F00
0F00
0780
0380
0000
0000
1FC0
1FC0
3FC0
3F80
3F80
3F80
3F80
3F80
3F80
7F80
7F00
7F00
7F00
7F00
FF00
FF00
ENDCHAR
STARTCHAR iacute
ENCODING 237
SWIDTH 306 0
DWIDTH 10 0
BBX 12 23 1 0
BITMAP
01F0
01E0
03C0
0380
0700
0000
0000
1FC0
1FC0
3FC0
3F80
3F80
3F80
3F80
3F80
3F80
7F80
7F00
7F00
7F00
7F00
FF00
FF00
ENDCHAR
STARTCHAR icircumflex
ENCODING 238
SWIDTH 306 0
DWIDTH 10 0
BBX 12 23 1 0
BITMAP
0380
07C0
0FE0
1CE0
38F0
0000
0000
1FC0
1FC0
3FC0
3F80
3F80
3F80
3F80
3F80
3F80
7F80
7F00
7F00
7F00
7F00
FF00
FF00
ENDCHAR
STARTCHAR idieresis
ENCODING 239
SWIDTH 306 0
DWIDTH 10 0
BBX 14 23 1 0
BITMAP
3C78
7EFC
7CFC
7CF8
78F0
0000
0000
1FC0
1FC0
3FC0
3F80
3F80
3F80
3F80
3F80
3F80
7F80
7F00
7F00
7F00
7F00
FF00
FF00
ENDCHAR
STARTCHAR ntilde
ENCODING 241
SWIDTH 577 0
DWIDTH 18 0
BBX 18 22 1 0
BITMAP
01F080
03FF80
03FF80
027F00
000000
000F00
1FFFC0
3FFFC0
3FFFC0
3FFFC0
3F9FC0
3F9FC0
3F9FC0
3FBFC0
7FBF80
7F3F80
7F3F80
7F3F80
7F3F80
7F7F80
FF7F80
FF7F80
ENDCHAR
STARTCHAR ograve
ENCODING 242
SWIDTH 547 0
DWIDTH 18 0
BBX 17 23 2 0
BITMAP
03C000
01E000
01E000
00E000
007000
000000
01F000
07FC00
1FFE00
3FFF00
7F7F00
7F7F00
FF7F80
FE7F80
FE7F00
FE7F00
FE7F00
FE7F00
FEFE00
FEFE00
7FFC00
7FF800
1FE000
ENDCHAR
STARTCHAR oacute
ENCODING 243
SWIDTH 547 0
DWIDTH 18 0
BBX 17 23 2 0
BITMAP
003E00
003C00
007800
007000
00E000
000000
01F000
07FC00
1FFE00
3FFF00
7F7F00
7F7F00
FF7F80
FE7F80
FE7F00
FE7F00
FE7F00
FE7F00
FEFE00
FEFE00
7FFC00
7FF800
1FE000
ENDCHAR
STARTCHAR ocircumflex
ENCODING 244
SWIDTH 547 0
DWIDTH 18 0
BBX 17 23 2 0
BITMAP
007000
00F800
01F800
039C00
071E00
080000
01F000
07FC00
1FFE00
3FFF00
7F7F00
7F7F00
FF7F80
FE7F80
FE7F00
FE7F00
FE7F00
FE7F00
FEFE00
FEFE00
7FFC00
7FF800
1FE000
ENDCHAR
STARTCHAR otilde
ENCODING 245
SWIDTH 547 0
DWIDTH 18 0
BBX 17 22 2 0
BITMAP
07C100
07FE00
0FFE00
0DFE00
000000
01F000
07FC00
1FFE00
3FFF00
7F7F00
7F7F00
FF7F80
FE7F80
FE7F00
FE7F00
FE7F00
FE7F00
FEFE00
FEFE00
7FFC00
7FF800
1FE000
ENDCHAR
STARTCHAR odieresis
ENCODING 246
SWIDTH 547 0
DWIDTH 18 0
BBX 17 23 2 0
BITMAP
0F8F00
0FDF80
0F9F80
0F9F00
0F1E00
000000
01F000
07FC00
1FFE00
3FFF00
7F7F00
7F7F00
FF7F80
FE7F80
FE7F00
FE7F00
FE7F00
FE7F00
FEFE00
FEFE00
7FFC00
7FF800
1FE000
ENDCHAR
STARTCHAR oslash
ENCODING 248
SWIDTH 548 0
DWIDTH 18 0
BBX 17 17 2 0
BITMAP
01F100
0FFE00
1FFE00
3FFF00
7F7F00
7F7F00
FF7F80
FEFF00
FEFF00
FF7F00
FE7F00
FE7F00
FEFE00
FEFE00
FFFC00
7FF800
5FE000
ENDCHAR
STARTCHAR ugrave
ENCODING 249
SWIDTH 576 0
DWIDTH 18 0
BBX 18 24 2 -1
BITMAP
03E000
01E000
00F000
007000
007000
000000
000000
7FBFC0
7FBFC0
7FBF80
7F3F80
7F3F80
7F3F80
7F3F80
7F7F80
FE7F00
FE7F00
FE7F00
FE7F00
FFFF00
FFFF00
FFFF00
7FFF00
180000
ENDCHAR
STARTCHAR uacute
ENCODING 250
SWIDTH 576 0
DWIDTH 18 0
BBX 18 24 2 -1
BITMAP
001E00
003C00
003800
007000
00E000
000000
000000
7FBFC0
7FBFC0
7FBF80
7F3F80
7F3F80
7F3F80
7F3F80
7F7F80
FE7F00
FE7F00
FE7F00
FE7F00
FFFF00
FFFF00
FFFF00
7FFF00
180000
ENDCHAR
STARTCHAR ucircumflex
ENCODING 251
SWIDTH 576 0
DWIDTH 18 0
BBX 18 24 2 -1
BITMAP
007800
00F800
01DC00
039C00
078E00
000000
000000
7FBFC0
7FBFC0
7FBF80
7F3F80
7F3F80
7F3F80
7F3F80
7F7F80
FE7F00
FE7F00
FE7F00
FE7F00
FFFF00
FFFF00
FFFF00
7FFF00
180000
ENDCHAR
STARTCHAR udieresis
ENCODING 252
SWIDTH 577 0
DWIDTH 18 0
BBX 18 24 2 -1
BITMAP
078F80
0FDF80
0FDF80
0F9F00
070F00
000000
000000
3FBFC0
7FBFC0
7FBFC0
7F3F80
7F3F80
7F3F80
7F3F80
7F7F80
FF7F00
FE7F00
FE7F00
FE7F00
FFFF00
FFFF00
FFFF00
7FFF00
180000
ENDCHAR
STARTCHAR ydieresis
ENCODING 255
SWIDTH 459 0
DWIDTH 15 0
BBX 20 29 -2 -6
BITMAP
01E3E0
03F3E0
03F7E0
03F7E0
01E3C0
000000
000000
0FF3F0
0FF3E0
0FF3E0
0FF3E0
07F7C0
07F7C0
07FF80
07FF80
07FF00
07FF00
03FE00
03FE00
03FC00
03FC00
03F800
03F800
03F000
67E000
7FC000
7F8000
7F0000
FE0000
ENDCHAR
STARTCHAR dotlessi
ENCODING 305
SWIDTH 306 0
DWIDTH 10 0
BBX 10 16 1 0
BITMAP
1FC0
1FC0
3FC0
3F80
3F80
3F80
3F80
3F80
3F80
7F80
7F00
7F00
7F00
7F00
FF00
FF00
ENDCHAR
STARTCHAR OE
ENCODING 338
SWIDTH 915 0
DWIDTH 29 0
BBX 30 23 2 0
BITMAP
00FFFFFC
03FFFFFC
07FFFFFC
0FFFFFF8
1FC7F800
3FC7F800
3F87F800
7F87F800
7F87F800
7F87FFC0
7F07FFC0
FF0FFFC0
FF0FFFC0
FF0FF0C0
FF0FF000
FF0FF000
FF0FF000
FF1FE000
7F1FE070
7FFFFFE0
3FFFFFE0
1FFFFFE0
0FFFFFE0
ENDCHAR
STARTCHAR oe
ENCODING 339
SWIDTH 819 0
DWIDTH 26 0
BBX 25 17 2 0
BITMAP
01F0F800
07FFFE00
1FFFFF00
3FFFFF80
7F7F9F80
7F7F9F80
FF7F1F80
FE7F7F80
FE7FFE00
FE7FF800
FE7FC000
FEFF0000
FEFF8200
FEFFCF00
7FFFFF00
7FFFFE00
1FEFF800
ENDCHAR
STARTCHAR Ydieresis
ENCODING 376
SWIDTH 598 0
DWIDTH 19 0
BBX 22 30 2 0
BITMAP
01E3C0
03E7C0
07E7C0
07E7C0
03C780
000000
000000
FF80FC
7F80F8
7FC1F8
7FC1F0
3FC3E0
3FC7E0
3FE7C0
1FEF80
1FEF00
1FFF00
0FFE00
0FFC00
0FFC00
07F800
07F800
07F000
0FF000
0FF000
0FF000
0FF000
0FF000
0FF000
1FF000
ENDCHAR
STARTCHAR florin
ENCODING 402
SWIDTH 519 0
DWIDTH 17 0
BBX 23 30 -3 -7
BITMAP
0001FE
0003FE
000FFE
000FFC
001FC4
001F80
003F80
01FFF0
01FFF0
01FFF0
007FE0
007F00
00FF00
00FE00
00FE00
00FE00
01FE00
01FC00
01FC00
03FC00
03F800
03F800
03F800
07F800
07F000
07F000
FFE000
FFC000
FF8000
FE0000
ENDCHAR
STARTCHAR circumflex
ENCODING 710
SWIDTH 360 0
DWIDTH 12 0
BBX 10 5 4 18
BITMAP
0E00
1F00
3F00
7380
E3C0
ENDCHAR
STARTCHAR caron
ENCODING 711
SWIDTH 361 0
DWIDTH 12 0
BBX 11 5 4 18
BITMAP
E1E0
73C0
7380
3F00
1E00
ENDCHAR
STARTCHAR breve
ENCODING 728
SWIDTH 291 0
DWIDTH 9 0
BBX 9 5 4 18
BITMAP
C380
E380
FF00
FE00
7C00
ENDCHAR
STARTCHAR ring
ENCODING 730
SWIDTH 209 0
DWIDTH 7 0
BBX 5 6 4 18
BITMAP
20
F8
C8
C8
F8
70
ENDCHAR
STARTCHAR tilde
ENCODING 732
SWIDTH 338 0
DWIDTH 11 0
BBX 11 4 3 18
BITMAP
7C20
FFE0
FFE0
9FE0
ENDCHAR
STARTCHAR endash
ENCODING 8211
SWIDTH 606 0
DWIDTH 19 0
BBX 15 4 4 10
BITMAP
7FFE
7FFE
7FFC
FFFC
ENDCHAR
STARTCHAR emdash
ENCODING 8212
SWIDTH 508 0
DWIDTH 16 0
BBX 16 5 2 6
BITMAP
FFFF
FFFF
FFFF
FFFF
FFFF
ENDCHAR
STARTCHAR quoteleft
ENCODING 8216
SWIDTH 280 0
DWIDTH 9 0
BBX 9 9 3 14
BITMAP
0780
0F80
1F00
1F00
3F00
3E00
7E00
7E00
FE00
ENDCHAR
STARTCHAR quoteright
ENCODING 8217
SWIDTH 281 0
DWIDTH 9 0
BBX 9 9 3 14
BITMAP
3F80
3F00
3F00
7E00
7E00
7C00
7C00
F800
F000
ENDCHAR
STARTCHAR quotesinglbase
ENCODING 8218
SWIDTH 280 0
DWIDTH 9 0
BBX 9 9 0 -3
BITMAP
3F80
3F80
3F00
3F00
7E00
7E00
7C00
7800
F800
ENDCHAR
STARTCHAR quotedblleft
ENCODING 8220
SWIDTH 518 0
DWIDTH 17 0
BBX 17 9 3 14
BITMAP
078F80
0F8F00
1F1F00
1F3F00
3F3E00
3E7E00
7E7E00
7EFE00
FEFE00
ENDCHAR
STARTCHAR quotedblright
ENCODING 8221
SWIDTH 519 0
DWIDTH 17 0
BBX 16 9 3 14
BITMAP
3FFF
3F7F
3F7F
7E7E
7E7E
7C7C
7CF8
F8F8
F1F0
ENDCHAR
STARTCHAR quotedblbase
ENCODING 8222
SWIDTH 518 0
DWIDTH 17 0
BBX 17 9 0 -3
BITMAP
3FBF80
3FBF00
3F7F00
3F7E00
7E7E00
7E7C00
7C7C00
78F800
F8F000
ENDCHAR
STARTCHAR dagger
ENCODING 8224
SWIDTH 690 0
DWIDTH 22 0
BBX 22 31 2 -8
BITMAP
003E00
003E00
003E00
007E00
007E00
007C00
007C00
7FFFFC
7FFFFC
7FFFFC
7FFFF8
7FFFF8
FFFFF8
00F800
00F800
00F800
00F800
01F000
01F000
01F000
01F000
01F000
01F000
03F000
03E000
03E000
03E000
03E000
07E000
07E000
07E000
ENDCHAR
STARTCHAR daggerdbl
ENCODING 8225
SWIDTH 697 0
DWIDTH 22 0
BBX 23 31 1 -7
BITMAP
001F80
001F80
001F00
001F00
001F00
003F00
003F00
383E02
3FFFFE
3FFFFE
3FFFFE
3FFFFE
7FFFFE
007C00
007C00
007C00
007C00
007C00
7FFFFC
FFFFF8
FFFFF8
FFFFF8
FFFFF8
80F818
01F800
01F800
01F800
01F000
01F000
03F000
03F000
ENDCHAR
STARTCHAR bullet
ENCODING 8226
SWIDTH 360 0
DWIDTH 12 0
BBX 9 9 3 7
BITMAP
3C00
7F00
FF00
FF80
FF80
FF80
FF00
7F00
3C00
ENDCHAR
STARTCHAR ellipsis
ENCODING 8230
SWIDTH 864 0
DWIDTH 28 0
BBX 25 6 2 0
BITMAP
783E1F00
FC7E3F80
FC7F3F80
FC7F3F80
FC7E3F80
783E1F00
ENDCHAR
STARTCHAR perthousand
ENCODING 8240
SWIDTH 1078 0
DWIDTH 35 0
BBX 33 25 3 -1
BITMAP
0E00000000
1F81C00000
3FC3800000
7FC3800000
FBC7000000
F3C6000000
F3CE000000
F3CC000000
F7DC000000
F798000000
FFB8000000
7F70000000
3C63E03E00
00E7F0FF00
00CFF0FF00
01DEF9FF80
019EFBEF80
03BEFBEF80
073EFBEF80
063CF3CF00
0E3CF3CF00
0C3FE3FE00
1C1FE1FE00
180FC1F800
0007007000
ENDCHAR
STARTCHAR guilsinglleft
ENCODING 8249
SWIDTH 278 0
DWIDTH 9 0
BBX 8 13 2 2
BITMAP
0F
1F
1E
3C
78
F8
F0
F0
F8
F8
78
7C
3C
ENDCHAR
STARTCHAR guilsinglright
ENCODING 8250
SWIDTH 278 0
DWIDTH 9 0
BBX 9 13 1 2
BITMAP
3C00
1E00
1E00
1F00
0F80
0F80
0780
0F80
1F00
1E00
3C00
7800
F800
ENDCHAR
STARTCHAR fraction
ENCODING 8260
SWIDTH 185 0
DWIDTH 6 0
BBX 13 27 -2 -2
BITMAP
0038
0038
0030
0070
0070
00E0
00E0
00C0
01C0
01C0
0380
0380
0300
0700
0700
0E00
0E00
0C00
1C00
1C00
3800
3800
3000
7000
7000
E000
E000
ENDCHAR
STARTCHAR trademark
ENCODING 8482
SWIDTH 710 0
DWIDTH 23 0
BBX 19 11 4 12
BITMAP
FEE0E0
FEE0E0
30F1E0
30F1E0
31B360
31B360
71BE60
73BE60
731C60
631C60
631860
ENDCHAR
STARTCHAR fi
ENCODING 64257
SWIDTH 606 0
DWIDTH 19 0
BBX 14 13 5 6
BITMAP
0010
1838
787C
FCFC
7FF0
3FE0
1FC0
1FC0
3FE0
7FE0
FFF0
F1F0
60E0
ENDCHAR
STARTCHAR fl
ENCODING 64258
SWIDTH 481 0
DWIDTH 15 0
BBX 16 23 0 0
BITMAP
003E
01FE
0FFE
1FFE
1FFE
13FC
03FC
03FC
03FC
03FC
03FC
03F8
07F8
07F8
07F8
07F8
07F8
07F8
0FF0
0FF0
7FFF
FFFF
FFFE
ENDCHAR
STARTCHAR .notdef
ENCODING -1
SWIDTH 290 0
DWIDTH 9 0
BBX 1 1 0 0
BITMAP
00
ENDCHAR
STARTCHAR register
ENCODING -1
SWIDTH 890 0
DWIDTH 28 0
BBX 24 23 4 0
BITMAP
01FF00
07FFC0
0F00F0
1C0078
380038
70FF1C
60FF8E
E0E386
C0E386
C0C386
C0C707
C1FE07
C1F807
C1DC06
C1DE06
E1CE06
61CF0C
71871C
380038
1C0070
0F00E0
07FFC0
01FF00
ENDCHAR
ENDFONT
